<?xml version="1.0" standalone="no"?><!DOCTYPE svg PUBLIC "-//W3C//DTD SVG 1.1//EN" "http://www.w3.org/Graphics/SVG/1.1/DTD/svg11.dtd"><svg t="1537847158511" class="icon" style="" viewBox="0 0 1024 1024" version="1.1" xmlns="http://www.w3.org/2000/svg" p-id="3154" xmlns:xlink="http://www.w3.org/1999/xlink" width="32" height="32"><defs><style type="text/css"></style></defs><path d="M962.915783 937.275823c0.186242-2.63399-0.144286-5.347798-1.074472-7.997138L780.031523 411.267784c-2.87856-8.205892-10.698666-13.633508-19.438725-13.33061-8.695033 0.271176-16.20917 6.142907-18.574031 14.512529l-63.498196 224.768183L440.159812 78.616522c-3.182482-7.458879-10.541077-12.276604-18.671245-12.113899-8.108678 0.13303-15.329127 5.16258-18.263969 12.721743L74.28282 926.226163c-0.889253 2.289136-1.303692 4.640694-1.333368 6.960529-0.645706 1.962701-1.007957 4.054339-1.007957 6.232958 0 11.014868 8.930393 19.945261 19.945261 19.945261l851.203492 0c11.014868 0 19.945261-8.930393 19.945261-19.945261C963.03551 938.695149 962.991508 937.980881 962.915783 937.275823zM763.268744 483.957317l46.534849 132.585691-40.560788 28.40391-43.155892-29.376051L763.268744 483.957317zM703.823863 694.376701l10.829649-38.33305 43.528376 29.628808c3.387144 2.306532 7.306406 3.457752 11.222599 3.457752 4.004197 0 8.009418-1.203408 11.440563-3.607154l42.678008-29.887704 92.602048 263.841084L798.963711 919.476435l-95.54303-223.905536C703.55985 695.174879 703.70823 694.785 703.823863 694.376701zM273.567609 523.266601l58.43897 52.430116c3.777023 3.388167 8.54256 5.099135 13.320377 5.099135 4.306072 0 8.622378-1.38965 12.231579-4.193509l73.371054-56.986899 72.441892 54.409191c6.884804 5.17179 16.316617 5.338588 23.3805 0.416486l62.908772-43.831274 165.933193 388.865565L119.695103 919.475412 273.567609 523.266601zM317.318042 410.610822l40.643676 36.464493c7.123234 6.391571 17.780969 6.823406 25.400506 1.023306l49.852408-37.951357 47.092551 37.983079c3.648087 2.942005 8.081049 4.420683 12.524245 4.420683 4.15053 0 8.309246-1.292436 11.834536-3.891633l38.054711-28.055986 30.949896 72.53092-57.881268 40.327474-73.083505-54.891168c-7.190773-5.398964-17.110703-5.321192-24.212448 0.196475l-72.247464 56.114019-57.243749-51.357691L317.318042 410.610822zM422.684812 139.300626 526.633279 382.903783l-33.257451 24.51944-47.284933-38.137599c-7.145747-5.764284-17.297968-5.903453-24.603351-0.344854l-49.164746 37.428448-39.569204-35.500539L422.684812 139.300626z" p-id="3155" fill="#d48265"></path></svg>