<?xml version="1.0" standalone="no"?><!DOCTYPE svg PUBLIC "-//W3C//DTD SVG 1.1//EN" "http://www.w3.org/Graphics/SVG/1.1/DTD/svg11.dtd"><svg t="1537850333030" class="icon" style="" viewBox="0 0 1083 1024" version="1.1" xmlns="http://www.w3.org/2000/svg" p-id="4765" xmlns:xlink="http://www.w3.org/1999/xlink" width="33.84375" height="32"><defs><style type="text/css"></style></defs><path d="M615.884058 749.449275h-489.73913c-32.649275 0-59.362319-26.713043-59.362319-59.362318v-504.579711c0-32.649275 26.713043-59.362319 59.362319-59.362318h652.985507c32.649275 0 59.362319 26.713043 59.362319 59.362318v74.202899h-29.68116v-74.202899c0-16.324638-13.356522-29.681159-29.681159-29.681159h-652.985507c-16.324638 0-29.681159 13.356522-29.68116 29.681159v504.579711c0 16.324638 13.356522 29.681159 29.68116 29.681159h489.73913v29.681159zM605.495652 878.562319l-25.228985-25.228986H310.168116l-25.228986 25.228986-20.776811-20.776812 34.133333-34.133333h293.843478l34.133334 34.133333z" fill="#2A5082" p-id="4766"></path><path d="M556.521739 808.811594h-29.681159v-59.362319h-163.246377v59.362319h-29.68116v-89.043478h222.608696zM81.623188 601.043478h534.26087v29.68116h-534.26087zM408.115942 660.405797h74.202899v29.68116h-74.202899z" fill="#2A5082" p-id="4767"></path><path d="M1001.73913 393.275362v-44.521739c0-25.228986-19.292754-44.521739-44.521739-44.521739h-252.289855c-25.228986 0-44.521739 19.292754-44.521739 44.521739v44.521739h341.333333z" fill="#A3D4FF" p-id="4768"></path><path d="M1016.57971 408.115942h-371.014493v-59.362319c0-32.649275 26.713043-59.362319 59.362319-59.362319h252.289855c32.649275 0 59.362319 26.713043 59.362319 59.362319v59.362319z m-341.333333-29.681159h311.652174v-29.68116c0-16.324638-13.356522-29.681159-29.68116-29.681159h-252.289855c-16.324638 0-29.681159 13.356522-29.681159 29.681159v29.68116z" fill="#2A5082" p-id="4769"></path><path d="M660.405797 779.130435v59.362319c0 25.228986 19.292754 44.521739 44.521739 44.521739h252.289855c25.228986 0 44.521739-19.292754 44.521739-44.521739v-59.362319h-341.333333z" fill="#A3D4FF" p-id="4770"></path><path d="M957.217391 897.855072h-252.289855c-32.649275 0-59.362319-26.713043-59.362319-59.362318v-74.202899h371.014493v74.202899c0 32.649275-26.713043 59.362319-59.362319 59.362318z m-281.971014-103.884058v44.52174c0 16.324638 13.356522 29.681159 29.681159 29.681159h252.289855c16.324638 0 29.681159-13.356522 29.68116-29.681159v-44.52174h-311.652174z" fill="#2A5082" p-id="4771"></path><path d="M793.971014 808.811594h74.202899v29.68116h-74.202899zM1016.57971 779.130435h-29.681159v-371.014493h-311.652174v74.202899h-29.68116v-103.884058h371.014493zM645.565217 541.681159h29.68116v237.449276h-29.68116z" fill="#2A5082" p-id="4772"></path><path d="M774.678261 596.591304l-20.776812-20.776811 34.133334-34.133334-34.133334-34.133333 20.776812-20.776812 54.910145 54.910145z" fill="#2A5082" p-id="4773"></path><path d="M586.202899 526.84058h222.608695v29.681159h-222.608695zM471.930435 552.069565l-69.750725-69.750724 69.750725-69.750725 20.776811 20.776812-48.973913 48.973913 48.973913 48.973913z" fill="#2A5082" p-id="4774"></path><path d="M422.956522 467.478261h296.811594v29.681159h-296.811594zM136.533333 492.707246l-20.776811-20.776811 218.156521-218.156522 99.431885 99.431884-20.776812 20.776812-78.655073-78.655073z" fill="#2A5082" p-id="4775"></path><path d="M605.495652 388.823188l-123.176811-123.176811-78.655073 78.655072-20.776811-20.776811 99.431884-99.431884 143.953623 143.953623zM715.315942 744.997101l-20.776812-20.776811 114.272464-114.272464 99.431884 99.431884-20.776811 20.776812-78.655073-78.655073z" fill="#2A5082" p-id="4776"></path><path d="M863.721739 685.634783l-20.776811-20.776812 69.750724-69.750725 54.910145 54.910145-20.776811 20.776812-34.133334-34.133333z" fill="#2A5082" p-id="4777"></path></svg>