<?xml version="1.0" standalone="no"?><!DOCTYPE svg PUBLIC "-//W3C//DTD SVG 1.1//EN" "http://www.w3.org/Graphics/SVG/1.1/DTD/svg11.dtd"><svg t="1537856032069" class="icon" style="" viewBox="0 0 1024 1024" version="1.1" xmlns="http://www.w3.org/2000/svg" p-id="30644" xmlns:xlink="http://www.w3.org/1999/xlink" width="32" height="32"><defs><style type="text/css"></style></defs><path d="M382.037333 214.272c-36.394667 0-65.92 29.098667-65.92 64.981333 0 36.096 29.525333 65.28 65.92 65.28 36.352 0 65.92-29.141333 65.92-65.28a65.450667 65.450667 0 0 0-65.92-64.981333" fill="#6fb1f9" p-id="30645"></path><path d="M716.544 342.912c-2.56-13.909333-13.994667-21.930667-14.72-22.570667l-387.413333-255.317333-35.882667 52.096c-6.826667 10.368-3.84 23.893333 6.4 30.634667 10.368 6.826667 21.674667 1.664 28.288-8.704l13.952-34.432 324.010667 214.272-257.706667 46.506666c-18.346667 2.944-31.488 21.290667-27.392 39.082667l56.064 216.96-181.290667 272.042667a38.528 38.528 0 0 0 14.421334 53.077333 39.68 39.68 0 0 0 53.845333-14.378667s189.226667-284.458667 189.909333-286.421333c0 0 9.856 39.509333 9.856 39.722667l-28.544 226.944a38.997333 38.997333 0 0 0 32.469334 44.672 39.338667 39.338667 0 0 0 45.312-31.872l29.312-232.96a78.506667 78.506667 0 0 0-1.578667-23.253334l-64.597333-257.152 168.277333-30.293333a33.493333 33.493333 0 0 0 27.008-38.656M751.488 859.861333a34.261333 34.261333 0 1 1 0 68.522667 34.261333 34.261333 0 0 1 0-68.522667z" fill="#6fb1f9" p-id="30646"></path></svg>