<?xml version="1.0" standalone="no"?><!DOCTYPE svg PUBLIC "-//W3C//DTD SVG 1.1//EN" "http://www.w3.org/Graphics/SVG/1.1/DTD/svg11.dtd"><svg t="1537850200773" class="icon" style="" viewBox="0 0 1211 1024" version="1.1" xmlns="http://www.w3.org/2000/svg" p-id="4458" xmlns:xlink="http://www.w3.org/1999/xlink" width="37.84375" height="32"><defs><style type="text/css"></style></defs><path d="M597.333333 443.733333m-392.533333 0a392.533333 392.533333 0 1 0 785.066667 0 392.533333 392.533333 0 1 0-785.066667 0Z" fill="#E9EAEB" p-id="4459"></path><path d="M187.733333 238.933333l-102.4 102.4 102.4 102.4h358.4V238.933333z" fill="#FFFFFF" p-id="4460"></path><path d="M1024 341.333333H631.466667v204.8h392.533333l102.4-102.4z" fill="#E9EAEB" p-id="4461"></path><path d="M1030.826667 563.2H614.4V324.266667h102.4v34.133333h-68.266667v170.666667h368.64l85.333334-85.333334-85.333334-85.333333H904.533333v-34.133333h126.293334l119.466666 119.466666z" fill="#2A5082" p-id="4462"></path><path d="M750.933333 324.266667h34.133334v34.133333h-34.133334zM819.2 324.266667h51.2v34.133333h-51.2z" fill="#2A5082" p-id="4463"></path><path d="M622.933333 119.466667C580.266667 119.466667 546.133333 153.6 546.133333 196.266667V972.8h153.6V196.266667C699.733333 153.6 665.6 119.466667 622.933333 119.466667z" fill="#FFFFFF" p-id="4464"></path><path d="M716.8 989.866667H529.066667V443.733333h34.133333v512h119.466667V196.266667C682.666667 163.84 655.36 136.533333 622.933333 136.533333S563.2 163.84 563.2 196.266667V392.533333h-34.133333V196.266667c0-51.2 42.666667-93.866667 93.866666-93.866667S716.8 145.066667 716.8 196.266667V989.866667z" fill="#2A5082" p-id="4465"></path><path d="M392.533333 955.733333h460.8v34.133334H392.533333zM426.666667 221.866667h119.466666v34.133333h-119.466666zM699.733333 426.666667h119.466667v34.133333h-119.466667zM648.533333 460.8H180.906667l-119.466667-119.466667 119.466667-119.466666H324.266667v34.133333h-129.706667l-85.333333 85.333333 85.333333 85.333334H648.533333z" fill="#2A5082" p-id="4466"></path><path d="M307.2 546.133333l-102.4 102.4 102.4 102.4h307.2V546.133333z" fill="#A3D4FF" p-id="4467"></path><path d="M631.466667 768h-153.6v-34.133333h119.466666V563.2H314.026667l-85.333334 85.333333 85.333334 85.333334H375.466667v34.133333h-75.093334l-119.466666-119.466667 119.466666-119.466666H631.466667zM358.4 221.866667h34.133333v34.133333h-34.133333z" fill="#2A5082" p-id="4468"></path><path d="M409.6 733.866667h34.133333v34.133333h-34.133333zM853.333333 426.666667h34.133334v34.133333h-34.133334zM921.6 426.666667h34.133333v34.133333h-34.133333z" fill="#2A5082" p-id="4469"></path></svg>