<?xml version="1.0" standalone="no"?><!DOCTYPE svg PUBLIC "-//W3C//DTD SVG 1.1//EN" "http://www.w3.org/Graphics/SVG/1.1/DTD/svg11.dtd"><svg t="1537857267438" class="icon" style="" viewBox="0 0 1024 1024" version="1.1" xmlns="http://www.w3.org/2000/svg" p-id="34092" xmlns:xlink="http://www.w3.org/1999/xlink" width="32" height="32"><defs><style type="text/css"></style></defs><path d="M971.359 149.044l-0.699 2.79c-0.699 6.266-32.761 167.984-77.378 395.916-27.177 138.014-50.187 257.206-52.28 267.671-3.47 17.428-13.24 32.061-27.177 40.418-13.24 8.371-29.273 10.468-44.605 5.581-23.704-6.976-250.943-78.059-259.997-81.551l-10.468-3.489 19.518-58.556 9.753 2.79c9.768 2.79 228.634 71.099 253.733 79.474 5.581-29.287 87.129-446.12 112.912-576.461-93.393 108.744-407.066 473.979-411.946 479.562-3.489 4.185-9.053 16.030-8.356 27.193 0.682 13.24 0 181.223 0 188.199v11.149h-59.952v-202.138c0-25.799 9.053-48.089 28.575-70.401 13.261-15.332 280.214-326.213 379.207-441.237l-675.455 361.767 225.144 72.495-18.822 57.863-275.33-89.223c-13.936-4.882-23.688-16.731-25.085-30.666-1.395-17.428 8.356-34.152 26.478-43.921 27.89-15.332 834.367-433.561 842.035-437.749 8.356-4.17 20.216-7.655 31.366-2.075 24.404 11.846 20.916 32.761 18.822 44.605z" fill="#4EB9FF" p-id="34093"></path></svg>