<?xml version="1.0" standalone="no"?><!DOCTYPE svg PUBLIC "-//W3C//DTD SVG 1.1//EN" "http://www.w3.org/Graphics/SVG/1.1/DTD/svg11.dtd"><svg t="1537857679586" class="icon" style="" viewBox="0 0 1196 1024" version="1.1" xmlns="http://www.w3.org/2000/svg" p-id="50012" xmlns:xlink="http://www.w3.org/1999/xlink" width="37.375" height="32"><defs><style type="text/css"></style></defs><path d="M0 305.844221v47.876252h0.911986c9.279855 235.040327 153.800597 435.1682 358.164403 524.498805v2.151966h23.937626v47.877252c0 52.877174 42.87633 95.751504 95.753504 95.751504h239.38626c52.877174 0 95.751504-42.87433 95.751504-95.751504v-47.877252H833.28698c206.816768-88.32262 353.370479-289.835471 362.719332-526.648771h0.911986V305.845221H0v-0.001z m931.544445-23.936626L1136.724239 76.728801c4.673927-4.675927 4.673927-12.249809 0-16.923735l-16.929736-16.923736c-4.673927-4.679927-12.247809-4.679927-16.923735 0L863.838503 281.907595h67.705942zM894.490024 29.920532c3.296948-5.723911 1.333979-13.040796-4.396932-16.337744l-20.709676-11.966813c-5.725911-3.319948-13.048796-1.358979-16.362744 4.372931L693.727161 281.907595h55.287136L894.490024 29.920532z m0 0" fill="#E4394C" p-id="50013"></path></svg>