<?xml version="1.0" standalone="no"?><!DOCTYPE svg PUBLIC "-//W3C//DTD SVG 1.1//EN" "http://www.w3.org/Graphics/SVG/1.1/DTD/svg11.dtd"><svg t="1537857235010" class="icon" style="" viewBox="0 0 1024 1024" version="1.1" xmlns="http://www.w3.org/2000/svg" p-id="32207" xmlns:xlink="http://www.w3.org/1999/xlink" width="32" height="32"><defs><style type="text/css"></style></defs><path d="M361.679151 582.527844c-49.653076-57.208534-114.028034-167.550979-80.36632-300.846454 179.242487 78.912559 161.40833 309.691868 180.839575 661.849913h-40.172921v-80.222991H281.333307s-140.646178 10.176321-140.646178 60.157006c0 49.980684 111.263842 100.268501 401.852072 100.268501 290.608706 0 341.572214-76.107416 341.572214-100.268501 0-24.202036-28.890924-60.157005-140.646177-60.157006h-80.36632s-14.906161-226.970866 140.646178-461.292435c19.676951 27.314311 46.766031 89.170782-40.193397 200.577952 103.565056-9.72586 124.245306-72.565156 120.559716-160.466457 29.116154 15.069965 51.291116 45.4556 40.193398 160.466457 60.525564-36.384955 93.593489-144.45462 0-220.623462 42.302373 2.538961 65.050649 4.074624 80.366319 80.22299 56.573794-49.796405-18.735078-191.097798-140.646177-160.425506-23.894903-144.720801-241.139909-124.654816-241.13991-40.131971 48.588351-9.603007 103.95409-7.780688 120.559717 20.065986-54.669573 2.190878-120.559717 10.13537-120.559717 160.445981 49.325468-55.652396 69.125272-84.891404 160.732639-80.22299-59.194657 36.139249-180.8191 201.396973-180.8191 581.626922-33.129352 0.491412-60.279858 0-60.279858 0s25.901502-540.880686-200.926036-701.961409c92.324009-8.476855 165.421527-9.930615 241.119433 140.379997 11.3639-82.229589 11.609606-258.605507-180.839575-240.668973 21.110236-41.401452 19.00126-70.45618 180.839575-60.157006C477.611405-73.281798 247.200656 14.783308 241.119434 161.346904c0 0-241.897503-49.714503-241.119434 200.557477 64.190678-63.289756 94.289656-90.133131 120.559717-100.268501-34.235028 47.277919-119.187859 172.710804 0 280.800944 4.115575-145.171262 36.794465-168.513327 60.279858-200.577953 1.371858 72.524205 6.285977 236.041511 180.839576 240.668973" fill="#49B466" p-id="32208"></path></svg>