<?xml version="1.0" standalone="no"?><!DOCTYPE svg PUBLIC "-//W3C//DTD SVG 1.1//EN" "http://www.w3.org/Graphics/SVG/1.1/DTD/svg11.dtd"><svg t="1537857937162" class="icon" style="" viewBox="0 0 1648 1024" version="1.1" xmlns="http://www.w3.org/2000/svg" p-id="55175" xmlns:xlink="http://www.w3.org/1999/xlink" width="51.5" height="32"><defs><style type="text/css"></style></defs><path d="M1242.288948 979.764577a658.549332 658.549332 0 0 1 0-91.894492 42.227897 42.227897 0 0 0-9.738181-35.880924 39.169822 39.169822 0 0 0-34.242714-6.453027c-27.019865 4.264587-39.38068-8.969607-50.428931-31.835929-32.820353-67.827897-67.497261-136.19729-101.082444-202.493031-11.81932-23.189473-23.414056-46.493732-35.227138-69.575904-13.675875-27.35175-24.178887-38.837937-36.318861-39.710069-12.144965-0.877123-24.943718 8.859811-43.756312 34.236475-18.817585 25.382903-39.496715 53.714085-59.840218 81.611073l-25.275602 34.569608-137.947792-285.304377-38.726893-79.860571c-40.803041-83.799513-82.157559-170.32896-124.384209-255.112896a59.081626 59.081626 0 0 0-37.960815-31.289444c-10.937206-1.63821-22.644234 13.348981-34.896501 29.978127a121.665503 121.665503 0 0 0-13.237937 25.92315c-1.641953 3.831641-3.171615 7.769334-4.922118 11.487436l-122.194521 263.866653c-4.269578-5.361302-8.314573-10.942197-12.364558-15.971615a342.640491 342.640491 0 0 0-33.585184-39.930909c-37.849771-36.645755-81.937967-37.08494-120.334224-1.091725a188.155883 188.155883 0 0 0-36.758046 46.052052 536.036651 536.036651 0 0 0-69.577152 294.172922c4.264587 83.35908 34.676908 138.605322 92.766624 169.342041 25.928141 13.675875 31.94323 28.663067 24.178887 61.044234h-84.019105c-43.317126 0.984423-54.259324 11.487435-54.259324 53.936173v54.696013c0 61.811561 5.79924 67.497261 68.154791 67.497261H1009.054208c62.135959 0 126.353056 0 189.47219 0.65753h2.408032a43.745082 43.745082 0 0 0 33.477883-9.956526 41.58534 41.58534 0 0 0 7.876635-32.815362v0.106053zM179.494679 658.792631v74.173623c-40.803041-32.817857-61.696774-75.045755-65.634467-132.369393a423.782435 423.782435 0 0 1 70.776177-260.036261c12.584151-19.695955 24.944965-29.759782 36.320109-29.759781h0.65753c10.942197 0 21.878156 10.942197 32.820353 30.085427 56.886948 103.816122 74.933463 201.836748 55.243747 299.641525a117.045326 117.045326 0 0 1-67.277668 88.1714V559.79382a34.690633 34.690633 0 0 0-2.18844-20.788927 107.760055 107.760055 0 0 0-19.14323-21.878156c-2.847217-2.845969-5.800487-5.472346-8.426864-8.425616l-2.842227-2.95327-2.626376 3.065562a135.644566 135.644566 0 0 1-9.952783 9.731942c-8.314573 7.664529-16.959782 15.537421-17.393976 24.616825-2.188439 38.395009-1.861546 77.78068-1.643201 115.742743l1.311316-0.112292z m197.793002-160.921415c-2.847217-18.924885-5.580895-38.288956-7.330149-57.326134a113.339702 113.339702 0 0 1 4.702524-52.728414c32.820353-73.078156 65.639458-144.731455 101.627683-220.430997 10.722605-22.756526 21.478897-45.765084 32.273867-69.031913l295.370699 611.313227c10.942197 24.066595 21.883147 35.001306 32.820353 35.99072 10.942197 0.984423 24.398479-7.987679 40.368847-29.537693 21.878156-28.665562 42.552296-57.546973 64.542743-87.520109l26.362335-34.129175 125.041739 248.657374H246.012508c-7.769334-29.973136 0-43.756312 29.422906-58.309309 67.827897-31.835929 106.009553-95.721142 110.27414-184.881957a535.997973 535.997973 0 0 0-8.421873-102.06562z m797.391714 403.015966v54.698509H104.561216v-54.698509h1070.118179z m0 0" fill="#00CAB8" p-id="55176"></path></svg>