<?xml version="1.0" standalone="no"?><!DOCTYPE svg PUBLIC "-//W3C//DTD SVG 1.1//EN" "http://www.w3.org/Graphics/SVG/1.1/DTD/svg11.dtd"><svg t="1537857513273" class="icon" style="" viewBox="0 0 1024 1024" version="1.1" xmlns="http://www.w3.org/2000/svg" p-id="43390" xmlns:xlink="http://www.w3.org/1999/xlink" width="32" height="32"><defs><style type="text/css"></style></defs><path d="M552.514065 63.719226L750.096516 192.776258 750.096516 962.972903 552.514065 962.972903ZM765.555613 618.859355l0 340.100129L1007.483871 958.959484 1007.483871 696.138323 765.555613 618.859355zM867.707871 885.000258l-73.94271-21.537032 0-63.78529 73.94271 26.83871L867.707871 885.000258zM867.707871 773.41729l-73.94271-21.537032 0-63.768774 73.94271 26.855226L867.707871 773.41729zM960.445935 911.855484l-73.975742-21.520516 0-63.818323 73.975742 26.888258L960.445935 911.855484zM960.445935 800.305548l-73.94271-21.520516 0-63.818323 73.959226 26.855226L960.445935 800.305548 960.445935 800.305548zM285.712516 216.955871l0 510.662194-34.931613 22.82529L250.780903 579.88129l-22.164645 9.166452L228.616258 418.915097l-161.346065 71.234065 0 165.722839-15.442581 6.408258 0 300.692645 478.092387 0L529.92 61.043613 285.712516 216.955871zM82.068645 522.603355l54.453677-25.203613 0 65.502968-54.453677 24.212645L82.068645 522.603355zM86.098581 628.785548l54.453677-25.220129 0 65.536-54.453677 24.179613L86.098581 628.785548zM142.187355 864.140387l-54.420645 24.212645L87.76671 823.824516l54.420645-25.187097L142.187355 864.140387zM142.187355 764.300387l-54.420645 24.245677 0-64.528516 54.420645-25.187097L142.187355 764.300387zM149.933419 491.008l54.453677-25.203613 0 65.536-54.453677 24.196129L149.933419 491.008zM153.979871 597.173677l54.437161-25.203613 0 65.536-54.437161 24.229161L153.979871 597.173677zM214.808774 832.908387l-54.453677 24.245677 0-64.545032 54.453677-25.187097L214.808774 832.908387zM214.808774 733.117935l-54.453677 24.196129 0-64.512 54.453677-25.187097L214.808774 733.117935zM389.186065 744.464516l-75.297032 47.120516 0-69.879742 75.297032-48.706065L389.186065 744.464516zM389.186065 626.374194l-75.297032 47.104 0-69.896258 75.297032-48.706065L389.186065 626.374194zM389.186065 508.234323l-75.297032 47.137032 0-69.92929 75.297032-48.739097L389.186065 508.234323zM389.186065 390.127484l-75.297032 47.104 0-69.896258 75.297032-48.739097L389.186065 390.127484zM389.186065 272.004129l-75.297032 47.120516 0-69.912774 75.297032-48.722581L389.186065 272.004129zM500.752516 674.667355l-87.370323 54.651871 0-71.993806 87.370323-56.567742L500.752516 674.667355zM500.752516 556.527484l-87.370323 54.701419 0-72.043355 87.370323-56.567742L500.752516 556.527484zM500.752516 438.420645l-87.370323 54.684903 0-72.026839 87.370323-56.584258L500.752516 438.420645zM500.752516 320.29729l-87.370323 54.684903 0-72.026839 87.370323-56.584258L500.752516 320.29729zM500.752516 202.157419l-87.370323 54.684903 0-72.043355 87.370323-56.567742L500.752516 202.157419z" fill="#fb8a3c" p-id="43391"></path></svg>