<?xml version="1.0" standalone="no"?><!DOCTYPE svg PUBLIC "-//W3C//DTD SVG 1.1//EN" "http://www.w3.org/Graphics/SVG/1.1/DTD/svg11.dtd"><svg t="1538106535059" class="icon" style="" viewBox="0 0 1024 1024" version="1.1" xmlns="http://www.w3.org/2000/svg" p-id="10868" xmlns:xlink="http://www.w3.org/1999/xlink" width="32" height="32"><defs><style type="text/css"></style></defs><path d="M484.096 107.2a7.68 7.68 0 0 0-4.928-1.28 8.128 8.128 0 0 0-4.48 1.024 5.888 5.888 0 0 0-2.24 3.648 33.216 33.216 0 0 0-0.64 7.616 50.944 50.944 0 0 0 0.64 9.664 6.272 6.272 0 0 0 7.296 5.888 8.064 8.064 0 0 0 4.48-1.024 5.888 5.888 0 0 0 2.24-3.648 33.856 33.856 0 0 0 0.64-7.68 50.24 50.24 0 0 0-0.64-9.6 7.68 7.68 0 0 0-2.368-4.608z" fill="#FFC549" p-id="10869"></path><path d="M748.16 0H275.84a38.4 38.4 0 0 0-38.4 38.4v947.2a38.4 38.4 0 0 0 38.4 38.4H390.4v-159.168h243.2V1024h114.56a38.4 38.4 0 0 0 38.4-38.4V38.4a38.4 38.4 0 0 0-38.4-38.4zM387.456 688.64h-76.8v-76.8h76.8z m0-181.952h-76.8v-76.8h76.8z m0-182.016h-76.8v-76.8h76.8z m160-230.144h35.648l0.832 1.088-0.96 11.2-12.224-0.448h-7.936l-0.128 7.04h7.616l7.936-0.256 0.896 1.024-0.96 11.264-8.896-0.256h-6.912l-0.064 2.944 0.128 4.288h7.36l12.8-0.448 0.832 1.088-0.96 11.2h-35.008l0.768-14.592z m-143.04 0h15.616l-0.448 18.816 7.744 0.192 7.04-0.192-0.32-18.816h15.68l-0.896 33.6 0.64 16.128h-15.424l0.768-14.592-0.064-3.84-8.32-0.192-7.168 0.256v2.24l0.576 16.128h-15.424l0.768-14.592z m143.424 594.176h-76.8v-76.8h76.8z m0-182.016h-76.8v-76.8h76.8z m0-182.016h-76.8v-76.8h76.8z m-51.072-186.56a23.68 23.68 0 0 1-18.432 7.04 21.504 21.504 0 0 1-16.704-6.464 26.304 26.304 0 0 1-5.952-18.432 27.712 27.712 0 0 1 6.528-19.648 23.872 23.872 0 0 1 18.368-7.04 21.696 21.696 0 0 1 16.768 6.4 25.728 25.728 0 0 1 5.888 18.176 28.416 28.416 0 0 1-6.464 19.968z m19.008-31.744h-1.024l-10.24 0.448-0.896-1.088 0.832-11.2h37.12l0.832 1.088-0.832 11.2-10.176-0.448H530.56l-0.384 21.76 0.64 16.128h-15.36l0.768-14.592z m102.4 37.888h-29.568l0.768-14.592-0.768-35.136h15.68l-0.832 33.6 0.128 3.52h14.72l0.832 1.088z m85.44 544.448h-76.8v-76.8h76.8z m0-182.016h-76.8v-76.8h76.8z m0-182.016h-76.8v-76.8h76.8z" fill="#FFC549" p-id="10870"></path><path d="M985.6 596.096h-164.864v167.552h29.632v76.8h-29.632V985.6a72.064 72.064 0 0 1-11.072 38.4H985.6a38.4 38.4 0 0 0 38.4-38.4V634.496a38.4 38.4 0 0 0-38.4-38.4z m-29.824 244.416h-76.8v-76.8h76.8z" fill="#61B9DB" p-id="10871"></path><path d="M203.264 819.84H168.96v-76.8h34.368v-80H168.96v-76.8h34.368V442.752H38.4a38.4 38.4 0 0 0-38.4 38.4V985.6a38.4 38.4 0 0 0 38.4 38.4h175.936a72.064 72.064 0 0 1-11.072-38.4z m-62.912 0h-76.8v-76.8h76.8z m0-156.8h-76.8v-76.8h76.8z" fill="#F9882B" p-id="10872"></path></svg>